<?xml version="1.0" encoding="iso-8859-1"?>
<!-- Generator: Adobe Illustrator 19.0.0, SVG Export Plug-In . SVG Version: 6.00 Build 0)  -->
<svg version="1.1" id="Capa_1" xmlns="http://www.w3.org/2000/svg" xmlns:xlink="http://www.w3.org/1999/xlink" x="0px" y="0px"
	 viewBox="0 0 512 512" style="enable-background:new 0 0 512 512;" xml:space="preserve">
<g>
	<g transform="translate(1 1)">
		<g>
			<path style="fill:#E3E7F2;" d="M109.933,331.8v170.667h-76.8c-4.707-0.014-8.519-3.826-8.533-8.533V331.8H109.933z"/>
			<path style="fill:#E3E7F2;" d="M16.067,297.667h102.4c4.713,0,8.533,3.82,8.533,8.533v17.067c0,4.713-3.821,8.533-8.533,8.533
				h-102.4c-4.713,0-8.533-3.82-8.533-8.533V306.2C7.533,301.487,11.354,297.667,16.067,297.667z"/>
			<path style="fill:#E3E7F2;" d="M16.067,229.4h102.4c4.713,0,8.533,3.821,8.533,8.533V255c0,4.713-3.821,8.533-8.533,8.533h-102.4
				c-4.713,0-8.533-3.821-8.533-8.533v-17.067C7.533,233.221,11.354,229.4,16.067,229.4z"/>
			<rect x="24.6" y="263.533" style="fill:#E3E7F2;" width="85.333" height="34.133"/>
			<rect x="212.333" y="161.133" style="fill:#E3E7F2;" width="85.333" height="34.133"/>
			<rect x="400.067" y="263.533" style="fill:#E3E7F2;" width="85.333" height="34.133"/>
			<polygon style="fill:#E3E7F2;" points="118.467,229.4 16.067,229.4 67.267,109.933 			"/>
			<path style="fill:#E3E7F2;" d="M203.8,127h102.4c4.713,0,8.533,3.821,8.533,8.533V152.6c0,4.713-3.82,8.533-8.533,8.533H203.8
				c-4.713,0-8.533-3.821-8.533-8.533v-17.067C195.267,130.821,199.087,127,203.8,127z"/>
			<polygon style="fill:#E3E7F2;" points="306.2,127 203.8,127 255,7.533 			"/>
			<path style="fill:#E3E7F2;" d="M485.4,331.8v162.133c-0.014,4.707-3.826,8.519-8.533,8.533h-76.8V331.8H485.4z"/>
			<path style="fill:#E3E7F2;" d="M391.533,297.667h102.4c4.713,0,8.533,3.82,8.533,8.533v17.067c0,4.713-3.821,8.533-8.533,8.533
				h-102.4c-4.713,0-8.533-3.82-8.533-8.533V306.2C383,301.487,386.821,297.667,391.533,297.667z"/>
			<path style="fill:#E3E7F2;" d="M391.533,229.4h102.4c4.713,0,8.533,3.821,8.533,8.533V255c0,4.713-3.821,8.533-8.533,8.533
				h-102.4c-4.713,0-8.533-3.821-8.533-8.533v-17.067C383,233.221,386.821,229.4,391.533,229.4z"/>
			<polygon style="fill:#E3E7F2;" points="493.933,229.4 391.533,229.4 442.733,109.933 			"/>
		</g>
		<g>
			<path style="fill:#A4C2F7;" d="M485.4,331.8v162.133c-0.014,4.707-3.826,8.519-8.533,8.533h-25.6
				c4.707-0.014,8.519-3.826,8.533-8.533V331.8H485.4z"/>
			<path style="fill:#A4C2F7;" d="M485.4,263.533v34.133h8.533c4.707,0.014,8.519,3.826,8.533,8.533v17.067
				c-0.014,4.707-3.826,8.519-8.533,8.533H468.76c4.532-0.257,8.082-3.994,8.107-8.533V306.2c-0.014-4.707-3.826-8.519-8.533-8.533
				H459.8v-34.133h8.533c4.707-0.014,8.519-3.826,8.533-8.533v-17.067c-0.014-4.707-3.826-8.519-8.533-8.533l-38.4-89.6l12.8-29.867
				l51.2,119.467c4.707,0.014,8.519,3.826,8.533,8.533V255c-0.014,4.707-3.826,8.519-8.533,8.533H485.4z"/>
			<path style="fill:#A4C2F7;" d="M109.933,331.8v162.133c-0.014,4.707-3.826,8.519-8.533,8.533H75.8
				c4.707-0.014,8.519-3.826,8.533-8.533V331.8H109.933z"/>
			<path style="fill:#A4C2F7;" d="M109.933,263.533v34.133h8.533c4.707,0.014,8.519,3.826,8.533,8.533v17.067
				c-0.014,4.707-3.826,8.519-8.533,8.533H93.293c4.532-0.257,8.082-3.994,8.107-8.533V306.2c-0.014-4.707-3.826-8.519-8.533-8.533
				h-8.533v-34.133h8.533c4.707-0.014,8.519-3.826,8.533-8.533v-17.067c-0.014-4.707-3.826-8.519-8.533-8.533l-38.4-89.6
				l12.8-29.867l51.2,119.467c4.707,0.014,8.519,3.826,8.533,8.533V255c-0.014,4.707-3.826,8.519-8.533,8.533H109.933z"/>
		</g>
		<g>
			<rect x="109.933" y="365.933" style="fill:#E3E7F2;" width="59.733" height="136.533"/>
			<rect x="340.333" y="365.933" style="fill:#E3E7F2;" width="59.733" height="136.533"/>
		</g>
		<path style="fill:#D4E1F4;" d="M297.667,468.333l0,34.133h-85.334v-34.133c-0.003-18.654,12.083-35.159,29.867-40.789
			c4.156-1.232,8.466-1.864,12.8-1.877c11.326-0.035,22.199,4.45,30.208,12.459S297.701,457.007,297.667,468.333z"/>
		<path style="fill:#FFFFFF;" d="M272.067,468.333v34.133h-59.733v-34.133c-0.003-18.654,12.083-35.159,29.867-40.789
			c6.551,2.115,12.514,5.739,17.408,10.581C267.588,446.154,272.067,457.014,272.067,468.333z"/>
		<g>
			<path style="fill:#E3E7F2;" d="M323.267,203.8v85.333h-25.6L255,229.4l-42.667,59.733h-25.6V203.8
				c0.014-4.707,3.826-8.519,8.533-8.533h119.467C319.44,195.281,323.253,199.093,323.267,203.8z"/>
			<polygon style="fill:#E3E7F2;" points="297.667,289.133 212.333,289.133 255,229.4 			"/>
			<path style="fill:#E3E7F2;" d="M186.733,246.467v42.667H178.2c-4.707,0.014-8.519,3.826-8.533,8.533v68.267h-59.733V331.8h8.533
				c4.707-0.014,8.519-3.826,8.533-8.533V306.2c-0.014-4.707-3.826-8.519-8.533-8.533h-8.533v-34.133h8.533
				c4.707-0.014,8.519-3.826,8.533-8.533v-8.533H186.733z"/>
			<path style="fill:#E3E7F2;" d="M331.8,289.133H178.2c-4.707,0.014-8.519,3.826-8.533,8.533v204.8h42.667v-34.133
				c0-15.243,8.132-29.329,21.333-36.95c13.201-7.622,29.466-7.622,42.667,0c13.201,7.622,21.333,21.707,21.333,36.95v34.133h42.667
				v-204.8C340.319,292.96,336.507,289.147,331.8,289.133z M272.067,383h-34.133v-34.133c0.027-9.414,7.652-17.039,17.067-17.067
				c9.397,0.068,16.999,7.669,17.067,17.067V383z"/>
		</g>
		<g>
			<path style="fill:#A4C2F7;" d="M314.733,135.533V152.6c-0.014,4.707-3.826,8.519-8.533,8.533h-8.533v34.133h-25.6v-34.133h8.533
				c4.707-0.014,8.519-3.826,8.533-8.533v-17.067c-0.014-4.707-3.826-8.519-8.533-8.533l-38.4-89.6L255,7.533L306.2,127
				C310.907,127.014,314.719,130.826,314.733,135.533z"/>
			<path style="fill:#A4C2F7;" d="M340.333,297.667v204.8h-25.6v-204.8c-0.014-4.707-3.826-8.519-8.533-8.533h-8.533V203.8
				c-0.014-4.707-3.826-8.519-8.533-8.533h25.6c4.707,0.014,8.519,3.826,8.533,8.533v85.333h8.533
				C336.507,289.147,340.319,292.96,340.333,297.667z"/>
		</g>
		<path style="fill:#E3E7F2;" d="M383,306.2v17.067c0.014,4.707,3.826,8.519,8.533,8.533h8.533v34.133h-59.733v-68.267
			c-0.014-4.707-3.826-8.519-8.533-8.533h-8.533v-42.667H383V255c0.014,4.707,3.826,8.519,8.533,8.533h8.533v34.133h-8.533
			C386.826,297.681,383.014,301.493,383,306.2z"/>
		<path style="fill:#D4E1F4;" d="M272.067,348.867V383h-34.133v-34.133c0.027-9.414,7.652-17.039,17.067-17.067
			C264.397,331.868,271.999,339.469,272.067,348.867z"/>
	</g>
	<path style="fill:#FFFFFF;" d="M17.067,332.8H25.6v162.133c0.014,4.707,3.826,8.519,8.533,8.533h25.6
		c-4.707-0.014-8.519-3.826-8.533-8.533V332.8h-8.533c-4.707-0.014-8.519-3.826-8.533-8.533V307.2
		c0.014-4.707,3.826-8.519,8.533-8.533H51.2v-34.133h-8.533c-4.707-0.014-8.519-3.826-8.533-8.533v-17.067
		c0.014-4.707,3.826-8.519,8.533-8.533l38.4-89.6l-12.8-29.867l-12.8,29.867l-38.4,89.6c-4.707,0.014-8.519,3.826-8.533,8.533V256
		c0.014,4.707,3.826,8.519,8.533,8.533H25.6v34.133h-8.533c-4.707,0.014-8.519,3.826-8.533,8.533v17.067
		C8.547,328.974,12.36,332.786,17.067,332.8z"/>
	<g>
		<polygon style="fill:#FFFFFF;" points="34.133,332.8 34.133,443.733 34.133,494.933 17.067,494.933 17.067,443.733 17.067,332.8 
					"/>
		<g>
			<path style="fill:#428DFF;" d="M25.6,409.6c2.259-0.034,4.422-0.918,6.059-2.475c3.3-3.365,3.3-8.752,0-12.117l-1.279-1.025
				c-0.476-0.324-0.993-0.583-1.538-0.771c-0.484-0.246-1.003-0.417-1.538-0.509c-0.563-0.096-1.133-0.153-1.704-0.171
				c-2.259,0.031-4.423,0.915-6.059,2.475c-3.221,3.397-3.221,8.72,0,12.117c0.815,0.771,1.77,1.379,2.813,1.792
				C23.381,409.355,24.484,409.587,25.6,409.6z"/>
			<path style="fill:#428DFF;" d="M501.066,223.053l-49.49-115.478c-1.342-3.139-4.428-5.175-7.842-5.175
				c-3.414,0-6.499,2.036-7.842,5.175l-49.491,115.478c-6.574,2.528-10.918,8.837-10.934,15.881H332.8V204.8
				c-0.011-9.421-7.645-17.056-17.067-17.067H307.2v-17.067c9.421-0.011,17.056-7.645,17.067-17.067v-17.067
				c-0.017-7.043-4.361-13.352-10.934-15.881L263.842,5.175C262.5,2.036,259.415,0,256,0c-3.414,0-6.499,2.036-7.842,5.175
				l-49.491,115.478c-6.574,2.528-10.918,8.837-10.934,15.881V153.6c0.011,9.421,7.645,17.056,17.067,17.067v17.067h-8.533
				c-9.421,0.011-17.056,7.645-17.067,17.067v34.133h-42.667c-0.017-7.043-4.361-13.352-10.934-15.881l-49.49-115.478
				c-1.342-3.139-4.428-5.175-7.842-5.175c-3.414,0-6.499,2.036-7.842,5.175L10.934,223.053C4.361,225.581,0.017,231.89,0,238.933
				V256c0.011,9.421,7.645,17.056,17.067,17.067v17.067C7.645,290.144,0.011,297.779,0,307.2v17.067
				c0.011,9.421,7.645,17.056,17.067,17.067v25.6c0,4.713,3.821,8.533,8.533,8.533s8.533-3.82,8.533-8.533v-25.6H102.4v153.6H34.133
				V435.2c0-4.713-3.821-8.533-8.533-8.533s-8.533,3.82-8.533,8.533v59.733c0.011,9.421,7.645,17.056,17.067,17.067h443.733
				c9.421-0.011,17.056-7.645,17.067-17.067v-153.6c9.421-0.011,17.056-7.645,17.067-17.067V307.2
				c-0.011-9.421-7.645-17.056-17.067-17.067v-17.067c9.421-0.011,17.056-7.645,17.067-17.067v-17.067
				C511.983,231.89,507.639,225.581,501.066,223.053z M443.733,132.6l38.261,89.267h-76.523L443.733,132.6z M375.467,256
				c0.011,9.421,7.645,17.056,17.067,17.067v17.067c-9.421,0.011-17.056,7.645-17.067,17.067v17.067
				c0.011,9.421,7.645,17.056,17.067,17.067V358.4h-42.667v-59.733c-0.011-9.421-7.645-17.056-17.067-17.067V256H375.467z
				 M392.533,494.933h-42.667V375.467h42.667V494.933z M204.8,153.6v-17.067h102.4l0.012,17.067H204.8z M256,30.2l38.261,89.267
				h-76.523L256,30.2z M221.867,170.667h68.267v17.067h-68.267V170.667z M196.267,204.8h119.467v76.8h-12.674l-40.113-56.158
				c-1.679-2.124-4.238-3.363-6.946-3.363c-2.708,0-5.266,1.239-6.946,3.363L208.941,281.6h-12.674V204.8z M282.084,281.6h-52.168
				L256,245.083L282.084,281.6z M119.479,256H17.067v-17.067h102.4l0.006,8.503l-0.006,0.031l0.006,0.031L119.479,256z
				 M68.267,132.6l38.261,89.267H30.005L68.267,132.6z M34.133,273.067H102.4v17.067H34.133V273.067z M25.6,324.267h-8.533V307.2
				h102.4l0.012,17.067H25.6z M136.533,324.267V307.2c-0.011-9.421-7.645-17.056-17.067-17.067v-17.067
				c9.421-0.011,17.056-7.645,17.067-17.067H179.2v25.6c-9.421,0.011-17.056,7.645-17.067,17.067V358.4h-42.667v-17.067
				C128.888,341.323,136.523,333.688,136.533,324.267z M119.467,375.467h42.667v119.467h-42.667V375.467z M221.867,494.933v-25.6
				c0-18.851,15.282-34.133,34.133-34.133c18.851,0,34.133,15.282,34.133,34.133v25.6H221.867z M307.2,494.933v-25.6
				c0-28.277-22.923-51.2-51.2-51.2c-28.277,0-51.2,22.923-51.2,51.2v25.6h-25.6V298.667h153.6v196.267H307.2z M477.879,494.933
				H409.6v-153.6h68.267L477.879,494.933z M494.946,324.267H392.533V307.2h102.4L494.946,324.267z M477.867,290.133H409.6v-17.067
				h68.267V290.133z M392.533,256v-17.067h102.4L494.946,256H392.533z"/>
			<path style="fill:#428DFF;" d="M290.133,375.467H281.6v-25.6c0-14.138-11.461-25.6-25.6-25.6c-14.138,0-25.6,11.462-25.6,25.6
				v25.6h-8.533c-4.713,0-8.533,3.821-8.533,8.533s3.821,8.533,8.533,8.533h68.267c4.713,0,8.533-3.82,8.533-8.533
				S294.846,375.467,290.133,375.467z M247.467,375.467v-25.6c0-4.713,3.821-8.533,8.533-8.533c4.713,0,8.533,3.821,8.533,8.533
				v25.6H247.467z"/>
			<path style="fill:#428DFF;" d="M136.533,34.133c2.263,0.001,4.434-0.898,6.035-2.499c1.6-1.6,2.499-3.771,2.499-6.035V8.533
				c0-4.713-3.821-8.533-8.533-8.533S128,3.821,128,8.533V25.6c-0.001,2.263,0.898,4.434,2.499,6.035
				C132.099,33.235,134.27,34.134,136.533,34.133z"/>
			<path style="fill:#428DFF;" d="M118.429,29.567L106.363,17.5c-2.156-2.156-5.297-2.997-8.242-2.208
				c-2.944,0.789-5.244,3.089-6.033,6.033s0.053,6.086,2.208,8.242l12.067,12.067c3.332,3.332,8.735,3.332,12.067,0
				S121.761,32.899,118.429,29.567z"/>
			<path style="fill:#428DFF;" d="M76.8,59.733c-0.001,2.263,0.898,4.434,2.499,6.035c1.6,1.6,3.771,2.499,6.035,2.499H102.4
				c4.713,0,8.533-3.821,8.533-8.533S107.113,51.2,102.4,51.2H85.333c-2.263-0.001-4.434,0.898-6.035,2.499
				C77.698,55.299,76.799,57.47,76.8,59.733z"/>
			<path style="fill:#428DFF;" d="M106.363,77.833L94.296,89.9c-2.156,2.156-2.997,5.297-2.208,8.242
				c0.789,2.944,3.089,5.244,6.033,6.033c2.944,0.789,6.086-0.053,8.242-2.208L118.429,89.9c3.332-3.332,3.332-8.735,0-12.067
				C115.097,74.501,109.695,74.501,106.363,77.833z"/>
			<path style="fill:#428DFF;" d="M128,110.933c0,4.713,3.821,8.533,8.533,8.533s8.533-3.821,8.533-8.533V93.867
				c0-4.713-3.821-8.533-8.533-8.533S128,89.154,128,93.867V110.933z"/>
			<path style="fill:#428DFF;" d="M154.637,89.9l12.067,12.067c3.332,3.332,8.735,3.332,12.067,0c3.332-3.332,3.332-8.735,0-12.067
				l-12.067-12.067c-2.156-2.156-5.297-2.997-8.242-2.208c-2.944,0.789-5.244,3.089-6.033,6.033
				C151.64,84.603,152.482,87.745,154.637,89.9z"/>
			<path style="fill:#428DFF;" d="M162.133,59.733c-0.001,2.263,0.898,4.434,2.499,6.035c1.6,1.6,3.771,2.499,6.035,2.499h17.067
				c4.713,0,8.533-3.821,8.533-8.533s-3.821-8.533-8.533-8.533h-17.067c-2.263-0.001-4.434,0.898-6.035,2.499
				C163.032,55.299,162.133,57.47,162.133,59.733z"/>
			<path style="fill:#428DFF;" d="M166.704,17.5l-12.067,12.067c-3.332,3.332-3.332,8.735,0,12.067
				c3.332,3.332,8.735,3.332,12.067,0l12.067-12.067c3.332-3.332,3.332-8.735,0-12.067C175.439,14.168,170.036,14.168,166.704,17.5z
				"/>
			<path style="fill:#428DFF;" d="M375.467,34.133c2.263,0.001,4.434-0.898,6.035-2.499c1.6-1.6,2.499-3.771,2.499-6.035V8.533
				C384,3.821,380.18,0,375.467,0c-4.713,0-8.533,3.821-8.533,8.533V25.6c-0.001,2.263,0.898,4.434,2.499,6.035
				C371.033,33.235,373.203,34.134,375.467,34.133z"/>
			<path style="fill:#428DFF;" d="M357.363,29.567L345.296,17.5c-2.156-2.156-5.297-2.997-8.242-2.208s-5.244,3.089-6.033,6.033
				c-0.789,2.944,0.053,6.086,2.208,8.242l12.067,12.067c2.156,2.155,5.297,2.997,8.242,2.208c2.944-0.789,5.244-3.089,6.033-6.033
				C360.36,34.864,359.518,31.722,357.363,29.567z"/>
			<path style="fill:#428DFF;" d="M315.733,59.733c-0.001,2.263,0.898,4.434,2.499,6.035s3.771,2.499,6.035,2.499h17.067
				c4.713,0,8.533-3.821,8.533-8.533s-3.821-8.533-8.533-8.533h-17.067c-2.263-0.001-4.434,0.898-6.035,2.499
				C316.632,55.299,315.733,57.47,315.733,59.733z"/>
			<path style="fill:#428DFF;" d="M345.296,77.833L333.229,89.9c-3.332,3.332-3.332,8.735,0,12.067
				c3.332,3.332,8.735,3.332,12.067,0L357.363,89.9c2.156-2.156,2.997-5.297,2.208-8.242c-0.789-2.944-3.089-5.244-6.033-6.033
				C350.593,74.836,347.451,75.678,345.296,77.833z"/>
			<path style="fill:#428DFF;" d="M366.933,110.933c0,4.713,3.821,8.533,8.533,8.533c4.713,0,8.533-3.821,8.533-8.533V93.867
				c0-4.713-3.821-8.533-8.533-8.533c-4.713,0-8.533,3.821-8.533,8.533V110.933z"/>
			<path style="fill:#428DFF;" d="M393.571,89.9l12.067,12.067c3.332,3.332,8.735,3.332,12.067,0c3.332-3.332,3.332-8.735,0-12.067
				l-12.067-12.067c-3.332-3.332-8.735-3.332-12.067,0C390.239,81.166,390.239,86.568,393.571,89.9z"/>
			<path style="fill:#428DFF;" d="M401.067,59.733c-0.001,2.263,0.898,4.434,2.499,6.035s3.771,2.499,6.035,2.499h17.067
				c4.713,0,8.533-3.821,8.533-8.533s-3.82-8.533-8.533-8.533H409.6c-2.263-0.001-4.434,0.898-6.035,2.499
				C401.965,55.299,401.066,57.47,401.067,59.733z"/>
			<path style="fill:#428DFF;" d="M405.637,17.5l-12.067,12.067c-2.156,2.156-2.997,5.297-2.208,8.242
				c0.789,2.944,3.089,5.244,6.033,6.033c2.944,0.789,6.086-0.053,8.242-2.208l12.067-12.067c3.332-3.332,3.332-8.735,0-12.067
				C414.372,14.168,408.97,14.168,405.637,17.5z"/>
			<circle style="fill:#428DFF;" cx="136.533" cy="59.733" r="8.533"/>
			<circle style="fill:#428DFF;" cx="375.467" cy="59.733" r="8.533"/>
		</g>
	</g>
</g>
<g>
</g>
<g>
</g>
<g>
</g>
<g>
</g>
<g>
</g>
<g>
</g>
<g>
</g>
<g>
</g>
<g>
</g>
<g>
</g>
<g>
</g>
<g>
</g>
<g>
</g>
<g>
</g>
<g>
</g>
</svg>
